<svg
  xmlns="http://www.w3.org/2000/svg"
  width="64"
  height="64"
  viewBox="0 0 24 24"
  fill="none"
  stroke="currentColor"
  stroke-width="2"
  stroke-linecap="round"
  stroke-linejoin="round"
  class="feather feather-github"
>
  <path
    d="M12 2C6.48 2 2 6.48 2 12c0 4.41 2.87 8.15 6.84 9.48.5.09.68-.22.68-.48 0-.24-.01-.87-.01-1.71-2.78.61-3.37-1.34-3.37-1.34-.45-1.14-1.1-1.44-1.1-1.44-.9-.62.07-.61.07-.61 1 .07 1.53 1.03 1.53 1.03.89 1.52 2.34 1.08 2.91.83.09-.64.35-1.08.63-1.33-2.22-.25-4.56-1.11-4.56-4.93 0-1.09.39-1.98 1.02-2.68-.1-.25-.45-1.26.1-2.62 0 0 .84-.27 2.75 1.03A9.564 9.564 0 0112 7.68c.85.004 1.71.11 2.51.32 1.91-1.3 2.75-1.03 2.75-1.03.55 1.36.2 2.37.1 2.62.63.7 1.02 1.59 1.02 2.68 0 3.83-2.34 4.67-4.57 4.92.36.31.68.92.68 1.85 0 1.34-.01 2.41-.01 2.74 0 .27.18.58.69.48A9.997 9.997 0 0022 12c0-5.52-4.48-10-10-10z"
  ></path>
</svg>
